<svg xmlns="http://www.w3.org/2000/svg" width="1000" height="192" viewBox="0 0 1000 192" role="img" aria-label="Tech stack">
  <title>Tech stack</title>
  <defs>
    <clipPath id="round"><rect width="1000" height="192" rx="18"/></clipPath>
    <linearGradient id="fl1" x1="0" x2="1" y1="0" y2="0"><stop offset="0" stop-color="#0b0b0b" stop-opacity="1"/><stop offset="1" stop-color="#0b0b0b" stop-opacity="0"/></linearGradient>
    <linearGradient id="fr1" x1="1" x2="0" y1="0" y2="0"><stop offset="0" stop-color="#0b0b0b" stop-opacity="1"/><stop offset="1" stop-color="#0b0b0b" stop-opacity="0"/></linearGradient>
    <linearGradient id="fl2" x1="0" x2="1" y1="0" y2="0"><stop offset="0" stop-color="#858585" stop-opacity="1"/><stop offset="1" stop-color="#858585" stop-opacity="0"/></linearGradient>
    <linearGradient id="fr2" x1="1" x2="0" y1="0" y2="0"><stop offset="0" stop-color="#858585" stop-opacity="1"/><stop offset="1" stop-color="#858585" stop-opacity="0"/></linearGradient>
    <linearGradient id="fl3" x1="0" x2="1" y1="0" y2="0"><stop offset="0" stop-color="#f2f2f2" stop-opacity="1"/><stop offset="1" stop-color="#f2f2f2" stop-opacity="0"/></linearGradient>
    <linearGradient id="fr3" x1="1" x2="0" y1="0" y2="0"><stop offset="0" stop-color="#f2f2f2" stop-opacity="1"/><stop offset="1" stop-color="#f2f2f2" stop-opacity="0"/></linearGradient>
  </defs>
  <style>
    text { font-family: ui-monospace, 'SF Mono', Menlo, Consolas, 'Liberation Mono', monospace; font-size: 24px; font-weight: 600; }
    .m1 { animation: m1 38s linear infinite; }
    @keyframes m1 { from { transform: translateX(0px); } to { transform: translateX(-1676.8px); } }
    .m2 { animation: m2 46s linear infinite; }
    @keyframes m2 { from { transform: translateX(-1998.4px); } to { transform: translateX(0px); } }
    .m3 { animation: m3 32s linear infinite; }
    @keyframes m3 { from { transform: translateX(0px); } to { transform: translateX(-1217.6px); } }
  </style>

  <g clip-path="url(#round)">
    <rect y="0" width="1000" height="64" fill="#0b0b0b"/>
    <g class="m1">
      <text x="0" y="40" fill="#ffffff" textLength="144" lengthAdjust="spacing">TypeScript</text>
      <circle cx="176" cy="32" r="3" fill="#858585"/>
      <text x="208" y="40" fill="#ffffff" textLength="144" lengthAdjust="spacing">JavaScript</text>
      <circle cx="384" cy="32" r="3" fill="#858585"/>
      <text x="416" y="40" fill="#ffffff" textLength="86.4" lengthAdjust="spacing">Python</text>
      <circle cx="534.4" cy="32" r="3" fill="#858585"/>
      <text x="566.4" y="40" fill="#ffffff" textLength="43.2" lengthAdjust="spacing">PHP</text>
      <circle cx="641.6" cy="32" r="3" fill="#858585"/>
      <text x="673.6" y="40" fill="#ffffff" textLength="57.6" lengthAdjust="spacing">Java</text>
      <circle cx="763.2" cy="32" r="3" fill="#858585"/>
      <text x="795.2" y="40" fill="#ffffff" textLength="72" lengthAdjust="spacing">React</text>
      <circle cx="899.2" cy="32" r="3" fill="#858585"/>
      <text x="931.2" y="40" fill="#ffffff" textLength="100.8" lengthAdjust="spacing">Next.js</text>
      <circle cx="1064" cy="32" r="3" fill="#858585"/>
      <text x="1096" y="40" fill="#ffffff" textLength="43.2" lengthAdjust="spacing">Vue</text>
      <circle cx="1171.2" cy="32" r="3" fill="#858585"/>
      <text x="1203.2" y="40" fill="#ffffff" textLength="172.8" lengthAdjust="spacing">React Native</text>
      <circle cx="1408" cy="32" r="3" fill="#858585"/>
      <text x="1440" y="40" fill="#ffffff" textLength="172.8" lengthAdjust="spacing">Tailwind CSS</text>
      <circle cx="1644.8" cy="32" r="3" fill="#858585"/>
      <text x="1676.8" y="40" fill="#ffffff" textLength="144" lengthAdjust="spacing">TypeScript</text>
      <circle cx="1852.8" cy="32" r="3" fill="#858585"/>
      <text x="1884.8" y="40" fill="#ffffff" textLength="144" lengthAdjust="spacing">JavaScript</text>
      <circle cx="2060.8" cy="32" r="3" fill="#858585"/>
      <text x="2092.8" y="40" fill="#ffffff" textLength="86.4" lengthAdjust="spacing">Python</text>
      <circle cx="2211.2" cy="32" r="3" fill="#858585"/>
      <text x="2243.2" y="40" fill="#ffffff" textLength="43.2" lengthAdjust="spacing">PHP</text>
      <circle cx="2318.4" cy="32" r="3" fill="#858585"/>
      <text x="2350.4" y="40" fill="#ffffff" textLength="57.6" lengthAdjust="spacing">Java</text>
      <circle cx="2440" cy="32" r="3" fill="#858585"/>
      <text x="2472" y="40" fill="#ffffff" textLength="72" lengthAdjust="spacing">React</text>
      <circle cx="2576" cy="32" r="3" fill="#858585"/>
      <text x="2608" y="40" fill="#ffffff" textLength="100.8" lengthAdjust="spacing">Next.js</text>
      <circle cx="2740.8" cy="32" r="3" fill="#858585"/>
      <text x="2772.8" y="40" fill="#ffffff" textLength="43.2" lengthAdjust="spacing">Vue</text>
      <circle cx="2848" cy="32" r="3" fill="#858585"/>
      <text x="2880" y="40" fill="#ffffff" textLength="172.8" lengthAdjust="spacing">React Native</text>
      <circle cx="3084.8" cy="32" r="3" fill="#858585"/>
      <text x="3116.8" y="40" fill="#ffffff" textLength="172.8" lengthAdjust="spacing">Tailwind CSS</text>
      <circle cx="3321.6" cy="32" r="3" fill="#858585"/>
    </g>
    <rect y="0" width="90" height="64" fill="url(#fl1)"/>
    <rect x="910" y="0" width="90" height="64" fill="url(#fr1)"/>
    <rect y="64" width="1000" height="64" fill="#858585"/>
    <g class="m2">
      <text x="0" y="104" fill="#0b0b0b" textLength="100.8" lengthAdjust="spacing">Node.js</text>
      <circle cx="132.8" cy="96" r="3" fill="#0b0b0b"/>
      <text x="164.8" y="104" fill="#0b0b0b" textLength="86.4" lengthAdjust="spacing">NestJS</text>
      <circle cx="283.2" cy="96" r="3" fill="#0b0b0b"/>
      <text x="315.2" y="104" fill="#0b0b0b" textLength="100.8" lengthAdjust="spacing">Express</text>
      <circle cx="448" cy="96" r="3" fill="#0b0b0b"/>
      <text x="480" y="104" fill="#0b0b0b" textLength="100.8" lengthAdjust="spacing">FastAPI</text>
      <circle cx="612.8" cy="96" r="3" fill="#0b0b0b"/>
      <text x="644.8" y="104" fill="#0b0b0b" textLength="100.8" lengthAdjust="spacing">Laravel</text>
      <circle cx="777.6" cy="96" r="3" fill="#0b0b0b"/>
      <text x="809.6" y="104" fill="#0b0b0b" textLength="86.4" lengthAdjust="spacing">Spring</text>
      <circle cx="928" cy="96" r="3" fill="#0b0b0b"/>
      <text x="960" y="104" fill="#0b0b0b" textLength="144" lengthAdjust="spacing">PostgreSQL</text>
      <circle cx="1136" cy="96" r="3" fill="#0b0b0b"/>
      <text x="1168" y="104" fill="#0b0b0b" textLength="72" lengthAdjust="spacing">MySQL</text>
      <circle cx="1272" cy="96" r="3" fill="#0b0b0b"/>
      <text x="1304" y="104" fill="#0b0b0b" textLength="72" lengthAdjust="spacing">Redis</text>
      <circle cx="1408" cy="96" r="3" fill="#0b0b0b"/>
      <text x="1440" y="104" fill="#0b0b0b" textLength="100.8" lengthAdjust="spacing">GraphQL</text>
      <circle cx="1572.8" cy="96" r="3" fill="#0b0b0b"/>
      <text x="1604.8" y="104" fill="#0b0b0b" textLength="86.4" lengthAdjust="spacing">Docker</text>
      <circle cx="1723.2" cy="96" r="3" fill="#0b0b0b"/>
      <text x="1755.2" y="104" fill="#0b0b0b" textLength="43.2" lengthAdjust="spacing">Git</text>
      <circle cx="1830.4" cy="96" r="3" fill="#0b0b0b"/>
      <text x="1862.4" y="104" fill="#0b0b0b" textLength="72" lengthAdjust="spacing">Linux</text>
      <circle cx="1966.4" cy="96" r="3" fill="#0b0b0b"/>
      <text x="1998.4" y="104" fill="#0b0b0b" textLength="100.8" lengthAdjust="spacing">Node.js</text>
      <circle cx="2131.2" cy="96" r="3" fill="#0b0b0b"/>
      <text x="2163.2" y="104" fill="#0b0b0b" textLength="86.4" lengthAdjust="spacing">NestJS</text>
      <circle cx="2281.6" cy="96" r="3" fill="#0b0b0b"/>
      <text x="2313.6" y="104" fill="#0b0b0b" textLength="100.8" lengthAdjust="spacing">Express</text>
      <circle cx="2446.4" cy="96" r="3" fill="#0b0b0b"/>
      <text x="2478.4" y="104" fill="#0b0b0b" textLength="100.8" lengthAdjust="spacing">FastAPI</text>
      <circle cx="2611.2" cy="96" r="3" fill="#0b0b0b"/>
      <text x="2643.2" y="104" fill="#0b0b0b" textLength="100.8" lengthAdjust="spacing">Laravel</text>
      <circle cx="2776" cy="96" r="3" fill="#0b0b0b"/>
      <text x="2808" y="104" fill="#0b0b0b" textLength="86.4" lengthAdjust="spacing">Spring</text>
      <circle cx="2926.4" cy="96" r="3" fill="#0b0b0b"/>
      <text x="2958.4" y="104" fill="#0b0b0b" textLength="144" lengthAdjust="spacing">PostgreSQL</text>
      <circle cx="3134.4" cy="96" r="3" fill="#0b0b0b"/>
      <text x="3166.4" y="104" fill="#0b0b0b" textLength="72" lengthAdjust="spacing">MySQL</text>
      <circle cx="3270.4" cy="96" r="3" fill="#0b0b0b"/>
      <text x="3302.4" y="104" fill="#0b0b0b" textLength="72" lengthAdjust="spacing">Redis</text>
      <circle cx="3406.4" cy="96" r="3" fill="#0b0b0b"/>
      <text x="3438.4" y="104" fill="#0b0b0b" textLength="100.8" lengthAdjust="spacing">GraphQL</text>
      <circle cx="3571.2" cy="96" r="3" fill="#0b0b0b"/>
      <text x="3603.2" y="104" fill="#0b0b0b" textLength="86.4" lengthAdjust="spacing">Docker</text>
      <circle cx="3721.6" cy="96" r="3" fill="#0b0b0b"/>
      <text x="3753.6" y="104" fill="#0b0b0b" textLength="43.2" lengthAdjust="spacing">Git</text>
      <circle cx="3828.8" cy="96" r="3" fill="#0b0b0b"/>
      <text x="3860.8" y="104" fill="#0b0b0b" textLength="72" lengthAdjust="spacing">Linux</text>
      <circle cx="3964.8" cy="96" r="3" fill="#0b0b0b"/>
    </g>
    <rect y="64" width="90" height="64" fill="url(#fl2)"/>
    <rect x="910" y="64" width="90" height="64" fill="url(#fr2)"/>
    <rect y="128" width="1000" height="64" fill="#f2f2f2"/>
    <g class="m3">
      <text x="0" y="168" fill="#0b0b0b" textLength="86.4" lengthAdjust="spacing">OpenAI</text>
      <circle cx="118.4" cy="160" r="3" fill="#858585"/>
      <text x="150.4" y="168" fill="#0b0b0b" textLength="86.4" lengthAdjust="spacing">Gemini</text>
      <circle cx="268.8" cy="160" r="3" fill="#858585"/>
      <text x="300.8" y="168" fill="#0b0b0b" textLength="86.4" lengthAdjust="spacing">Claude</text>
      <circle cx="419.2" cy="160" r="3" fill="#858585"/>
      <text x="451.2" y="168" fill="#0b0b0b" textLength="129.6" lengthAdjust="spacing">LangChain</text>
      <circle cx="612.8" cy="160" r="3" fill="#858585"/>
      <text x="644.8" y="168" fill="#0b0b0b" textLength="43.2" lengthAdjust="spacing">n8n</text>
      <circle cx="720" cy="160" r="3" fill="#858585"/>
      <text x="752" y="168" fill="#0b0b0b" textLength="43.2" lengthAdjust="spacing">RAG</text>
      <circle cx="827.2" cy="160" r="3" fill="#858585"/>
      <text x="859.2" y="168" fill="#0b0b0b" textLength="86.4" lengthAdjust="spacing">Agents</text>
      <circle cx="977.6" cy="160" r="3" fill="#858585"/>
      <text x="1009.6" y="168" fill="#0b0b0b" textLength="144" lengthAdjust="spacing">Automation</text>
      <circle cx="1185.6" cy="160" r="3" fill="#858585"/>
      <text x="1217.6" y="168" fill="#0b0b0b" textLength="86.4" lengthAdjust="spacing">OpenAI</text>
      <circle cx="1336" cy="160" r="3" fill="#858585"/>
      <text x="1368" y="168" fill="#0b0b0b" textLength="86.4" lengthAdjust="spacing">Gemini</text>
      <circle cx="1486.4" cy="160" r="3" fill="#858585"/>
      <text x="1518.4" y="168" fill="#0b0b0b" textLength="86.4" lengthAdjust="spacing">Claude</text>
      <circle cx="1636.8" cy="160" r="3" fill="#858585"/>
      <text x="1668.8" y="168" fill="#0b0b0b" textLength="129.6" lengthAdjust="spacing">LangChain</text>
      <circle cx="1830.4" cy="160" r="3" fill="#858585"/>
      <text x="1862.4" y="168" fill="#0b0b0b" textLength="43.2" lengthAdjust="spacing">n8n</text>
      <circle cx="1937.6" cy="160" r="3" fill="#858585"/>
      <text x="1969.6" y="168" fill="#0b0b0b" textLength="43.2" lengthAdjust="spacing">RAG</text>
      <circle cx="2044.8" cy="160" r="3" fill="#858585"/>
      <text x="2076.8" y="168" fill="#0b0b0b" textLength="86.4" lengthAdjust="spacing">Agents</text>
      <circle cx="2195.2" cy="160" r="3" fill="#858585"/>
      <text x="2227.2" y="168" fill="#0b0b0b" textLength="144" lengthAdjust="spacing">Automation</text>
      <circle cx="2403.2" cy="160" r="3" fill="#858585"/>
    </g>
    <rect y="128" width="90" height="64" fill="url(#fl3)"/>
    <rect x="910" y="128" width="90" height="64" fill="url(#fr3)"/>
  </g>
</svg>
